<?xml version="1.0" encoding="UTF-8" standalone="no"?>
<svg width="529px" height="515px" viewBox="0 0 529 515" version="1.1" xmlns="http://www.w3.org/2000/svg" xmlns:xlink="http://www.w3.org/1999/xlink">
    <!-- Generator: Sketch 3.8.3 (29802) - http://www.bohemiancoding.com/sketch -->
    <title>DevCircle</title>
    <desc>Created with Sketch.</desc>
    <defs></defs>
    <g id="Page-1" stroke="none" stroke-width="1" fill="none" fill-rule="evenodd" opacity="0.428463153">
        <g id="Landing-page" transform="translate(0.000000, -509.000000)" fill="#EBEBEB">
            <g id="DevCircle" transform="translate(260.791372, 777.791372) rotate(-45.000000) translate(-260.791372, -777.791372) translate(-7.708628, 509.291372)">
                <path d="M268.024177,1.13686838e-13 C119.998512,7.74626495e-14 -9.55747436e-14,119.998512 -1.13686838e-13,268.024177 C-1.31798932e-13,416.049843 119.998512,536.048354 268.024177,536.048354 C416.049843,536.048354 536.048354,416.049843 536.048354,268.024177 C535.786454,120.10713 415.941225,0.261900029 268.024177,1.61985755e-13 L268.024177,1.13686838e-13 Z M268.024177,524.356709 C126.455629,524.356709 11.6916456,409.592725 11.6916456,268.024177 C11.6916456,126.455629 126.455629,11.6916456 268.024177,11.6916456 C409.592725,11.6916456 524.356709,126.455629 524.356709,268.024177 C524.206848,409.530604 409.530604,524.206848 268.024177,524.356709 L268.024177,524.356709 Z" id="Shape"></path>
                <path d="M258.065886,370.122152 L233.255127,370.122152 C230.026568,370.122152 227.409304,367.504888 227.409304,364.276329 C227.409304,361.04777 230.026568,358.430506 233.255127,358.430506 L258.031899,358.430506 C261.260457,358.421121 263.88533,361.030777 263.894715,364.259335 C263.9041,367.487894 261.294445,370.112766 258.065886,370.122152 L258.065886,370.122152 Z" id="Shape"></path>
                <path d="M258.065886,371.821519 L233.255127,371.821519 C229.088033,371.821519 225.709937,368.443422 225.709937,364.276329 C225.709937,360.109236 229.088033,356.731139 233.255127,356.731139 L258.031899,356.731139 C262.198992,356.721754 265.584697,360.092242 265.594082,364.259335 C265.603468,368.426429 262.232979,371.812134 258.065886,371.821519 L258.065886,371.821519 Z M233.255127,360.265823 C230.965102,360.265823 229.108671,362.122254 229.108671,364.412278 C229.108671,366.702303 230.965102,368.558734 233.255127,368.558734 L258.031899,368.558734 C260.321923,368.558734 262.178354,366.702303 262.178354,364.412278 C262.178354,362.122254 260.321923,360.265823 258.031899,360.265823 L233.255127,360.265823 L233.255127,360.265823 Z" id="Shape"></path>
                <path d="M258.065886,370.122152 L85.92,370.122152 C83.8312238,370.122682 81.9008742,369.008684 80.8562567,367.199883 C79.8116392,365.391082 79.8114979,363.162351 80.8558861,361.353418 L222.685063,115.556962 C223.75599,113.733257 225.728421,112.630187 227.842894,112.672476 C229.957366,112.714766 231.884115,113.89582 232.881266,115.760886 L288.008734,220.373924 C289.388613,222.217205 289.557929,224.698798 288.441201,226.712419 C287.324473,228.72604 285.129742,229.896563 282.835409,229.702174 C280.541076,229.507786 278.574563,227.984698 277.812532,225.811899 L227.647215,130.647342 L96.1841772,358.362532 L258.065886,358.362532 C261.313216,358.362532 263.945696,360.995012 263.945696,364.242342 C263.945696,367.489671 261.313216,370.122152 258.065886,370.122152 L258.065886,370.122152 Z" id="Shape"></path>
                <path d="M258.065886,371.821519 L85.92,371.821519 C83.2259277,371.818393 80.7379212,370.379054 79.3922387,368.045136 C78.0465561,365.711217 78.0473915,362.83687 79.3944304,360.503734 L221.223608,114.843228 C222.597636,112.473366 225.148189,111.034396 227.887123,111.08381 C230.626057,111.133224 233.123045,112.663257 234.410696,115.081139 L289.504177,219.592215 C290.437972,221.363307 290.62954,223.432925 290.036696,225.345325 C289.443852,227.257725 288.115213,228.856079 286.343354,229.788418 C282.646603,231.635627 278.150823,230.241935 276.147152,226.627595 L227.443291,134.216013 L98.9711392,356.867089 L258.031899,356.867089 C261.775638,357.364306 264.575109,360.552848 264.583692,364.329452 C264.592275,368.106056 261.807326,371.30729 258.065886,371.821519 L258.065886,371.821519 Z M227.71519,114.503354 C226.300978,114.563465 225.017074,115.346646 224.316456,116.576582 L82.3513291,362.203101 C81.6095805,363.487834 81.6106949,365.070956 82.3542513,366.354643 C83.0978077,367.63833 84.470508,368.426982 85.9539873,368.422785 L258.065886,368.422785 C260.35591,368.422785 262.212342,366.566353 262.212342,364.276329 C262.212342,361.986305 260.35591,360.129873 258.065886,360.129873 L93.0913291,360.129873 L227.71519,127.180633 L279.172025,225.03019 C280.265589,227.028713 282.749391,227.796433 284.779937,226.763544 C285.75424,226.250541 286.484487,225.371074 286.809651,224.319073 C287.134815,223.267071 287.028191,222.128935 286.513291,221.155633 L231.41981,116.712532 C230.695268,115.341262 229.266039,114.488969 227.71519,114.503354 L227.71519,114.503354 L227.71519,114.503354 Z" id="Shape"></path>
                <path d="M258.031899,370.122152 C257.005242,370.127489 255.99592,369.857554 255.108987,369.340443 C253.76564,368.565482 252.785285,367.288484 252.383705,365.790526 C251.982125,364.292567 252.192233,362.696424 252.967785,361.353418 L348.982025,195.019367 C350.016564,193.175632 351.965977,192.03414 354.080127,192.03414 C356.194276,192.03414 358.14369,193.175632 359.178228,195.019367 L455.192468,361.353418 C456.236857,363.162351 456.236715,365.391082 455.192098,367.199883 C454.14748,369.008684 452.217131,370.122682 450.128354,370.122152 L320.398671,370.122152 C317.170112,370.122152 314.552848,367.504888 314.552848,364.276329 C314.552848,361.04777 317.170112,358.430506 320.398671,358.430506 L440.000127,358.430506 L354.080127,209.633924 L263.096013,367.063291 C262.086611,368.924886 260.149371,370.09503 258.031899,370.122152 L258.031899,370.122152 Z" id="Shape"></path>
                <path d="M450.128354,371.821519 L320.398671,371.821519 C316.231578,371.821519 312.853481,368.443422 312.853481,364.276329 C312.853481,360.109236 316.231578,356.731139 320.398671,356.731139 L437.077215,356.731139 L354.080127,213.032658 L264.591456,368.048924 C262.441097,371.499173 257.989933,372.700987 254.395253,370.801899 C250.855401,368.718948 249.631836,364.187227 251.642278,360.605696 L347.656519,194.271646 C349.006607,191.945684 351.492695,190.514177 354.182089,190.514177 C356.871482,190.514177 359.35757,191.945684 360.707658,194.271646 L456.721899,360.605696 C458.02323,362.942776 457.989874,365.794171 456.634227,368.100169 C455.278579,370.406168 452.803314,371.822016 450.128354,371.821519 L450.128354,371.821519 Z M320.398671,360.265823 C318.108647,360.265823 316.252215,362.122254 316.252215,364.412278 C316.252215,366.702303 318.108647,368.558734 320.398671,368.558734 L450.128354,368.558734 C451.605761,368.550813 452.967351,367.757374 453.702622,366.475902 C454.437892,365.194431 454.43576,363.618528 453.697025,362.339051 L357.648797,195.869051 C356.847413,194.673239 355.502641,193.955626 354.063133,193.955626 C352.623625,193.955626 351.278853,194.673239 350.477468,195.869051 L254.463228,362.203101 C253.335292,364.184393 254.018492,366.70464 255.992658,367.845 C257.970018,368.940186 260.459273,368.280383 261.634557,366.349557 L354.080127,206.201203 L442.957025,360.265823 L320.398671,360.265823 L320.398671,360.265823 Z" id="Shape"></path>
            </g>
        </g>
    </g>
</svg>